<?xml version="1.0" encoding="UTF-8" standalone="no"?>
<!DOCTYPE svg PUBLIC "-//W3C//DTD SVG 1.1//EN" "http://www.w3.org/Graphics/SVG/1.1/DTD/svg11.dtd">
<svg xmlns="http://www.w3.org/2000/svg" version="1.1" viewBox="0.00 0.00 1254.00 1254.00">
<g stroke-width="2.00" fill="none" stroke-linecap="butt">
<path stroke="#f1d08e" vector-effect="non-scaling-stroke" d="
  M 474.90 685.22
  A 0.31 0.31 0.0 0 0 475.33 685.58
  L 551.83 648.79
  A 0.31 0.31 0.0 0 0 552.00 648.59
  L 578.88 544.33
  A 0.31 0.31 0.0 0 1 579.40 544.19
  L 650.32 617.53
  A 0.31 0.31 0.0 0 0 650.73 617.56
  L 750.32 544.86
  A 0.31 0.31 0.0 0 1 750.80 545.18
  L 727.36 646.56
  A 0.31 0.31 0.0 0 0 727.51 646.90
  L 784.83 678.77
  A 0.31 0.31 0.0 0 0 785.28 678.57
  L 841.48 435.56
  A 0.31 0.31 0.0 0 0 841.18 435.18
  L 780.70 435.18
  A 0.31 0.31 0.0 0 0 780.50 435.25
  L 667.78 527.42
  A 0.31 0.31 0.0 0 1 667.34 527.37
  L 600.15 435.33
  A 0.31 0.31 0.0 0 0 599.90 435.20
  L 539.61 435.20
  A 0.31 0.31 0.0 0 0 539.31 435.43
  L 474.90 685.22"
/>
<path stroke="#8b929a" vector-effect="non-scaling-stroke" d="
  M 978.89 549.15
  L 1062.84 571.43
  A 0.99 0.99 0.0 0 1 1063.55 572.62
  L 1045.10 648.80
  A 0.43 0.43 0.0 0 1 1044.70 649.12
  Q 1007.39 649.32 943.75 649.15
  Q 930.69 649.11 918.05 643.90
  Q 896.51 635.01 888.96 612.99
  C 882.91 595.33 885.12 576.78 892.14 559.91
  C 906.71 524.92 939.44 501.55 977.75 501.47
  Q 1029.65 501.37 1138.39 501.40
  A 0.76 0.76 0.0 0 0 1139.13 500.82
  L 1154.97 435.44
  A 0.21 0.20 6.7 0 0 1154.77 435.19
  Q 1109.01 435.05 982.02 435.25
  C 931.85 435.33 886.35 459.52 856.86 499.63
  C 825.93 541.71 811.88 600.15 834.53 648.58
  C 849.14 679.81 876.45 701.14 909.88 708.86
  Q 926.42 712.69 939.51 712.77
  Q 963.38 712.92 1089.94 712.88
  A 0.85 0.85 0.0 0 0 1090.77 712.23
  L 1130.33 548.92
  A 0.49 0.49 0.0 0 0 1129.86 548.31
  L 979.00 548.31
  A 0.43 0.43 0.0 0 0 978.89 549.15"
/>
<path stroke="#8b929a" vector-effect="non-scaling-stroke" d="
  M 124.68 623.80
  A 0.26 0.26 0.0 0 0 124.92 624.06
  L 232.87 632.08
  A 0.75 0.74 9.6 0 1 233.54 633.01
  L 213.16 712.06
  A 0.67 0.67 0.0 0 0 213.81 712.90
  L 448.54 712.90
  A 0.95 0.95 0.0 0 0 449.46 712.20
  L 465.97 650.00
  A 0.62 0.62 0.0 0 0 465.37 649.22
  L 298.29 649.22
  A 0.26 0.26 0.0 0 1 298.04 648.90
  L 308.96 606.54
  A 0.51 0.51 0.0 0 1 309.45 606.16
  L 450.69 606.16
  A 0.46 0.45 -82.5 0 0 451.13 605.82
  L 467.42 544.45
  A 0.52 0.51 7.7 0 0 466.92 543.80
  L 326.08 543.80
  A 0.59 0.59 0.0 0 1 325.51 543.07
  L 335.98 502.50
  A 1.48 1.47 7.0 0 1 337.41 501.39
  L 504.34 501.39
  A 0.79 0.78 -82.9 0 0 505.10 500.79
  L 521.74 436.27
  A 0.59 0.59 0.0 0 0 521.17 435.53
  L 293.86 436.12
  A 0.94 0.91 -72.2 0 0 293.10 436.53
  C 286.66 446.11 281.24 455.99 277.34 467.56
  Q 273.84 477.96 271.94 486.12
  A 0.84 0.84 0.0 0 0 272.68 487.15
  L 309.96 490.63
  A 0.59 0.59 0.0 0 1 310.49 491.27
  L 309.98 496.71
  A 0.85 0.84 -87.7 0 1 309.15 497.48
  Q 302.96 497.62 298.04 497.99
  C 290.44 498.56 283.65 498.36 275.97 499.03
  Q 271.49 499.43 265.01 499.70
  C 225.32 501.33 191.16 503.87 136.26 507.22
  A 0.34 0.34 0.0 0 0 135.94 507.56
  L 135.94 507.82
  A 0.12 0.12 0.0 0 0 136.05 507.94
  L 262.96 517.36
  A 0.56 0.56 0.0 0 1 263.46 518.06
  L 254.41 553.16
  A 1.30 1.29 6.0 0 1 253.21 554.13
  Q 184.37 557.04 119.00 560.63
  Q 103.48 561.49 99.34 561.95
  A 0.18 0.18 0.0 0 0 99.18 562.13
  L 99.18 562.14
  A 0.19 0.19 0.0 0 0 99.36 562.32
  L 248.83 572.33
  A 0.46 0.46 0.0 0 1 249.25 572.91
  L 241.83 601.70
  A 0.84 0.84 0.0 0 0 242.56 602.74
  L 290.06 607.17
  A 0.17 0.17 0.0 0 1 290.21 607.36
  L 289.67 613.20
  A 0.35 0.34 0.9 0 1 289.35 613.50
  L 124.80 623.36
  A 0.13 0.12 -2.6 0 0 124.68 623.48
  L 124.68 623.80"
/>
<path stroke="#f1d08e" vector-effect="non-scaling-stroke" d="
  M 1046.13 574.08
  A 0.61 0.61 0.0 0 0 1046.07 572.94
  Q 1036.59 570.01 1022.62 566.16
  Q 1017.11 564.64 1013.08 563.74
  C 1007.26 562.43 1002.28 560.36 996.44 559.07
  C 988.79 557.37 981.39 554.78 973.81 553.18
  A 5.13 5.10 39.7 0 0 970.80 553.45
  L 914.14 576.71
  A 0.36 0.35 41.9 0 0 914.18 577.38
  L 987.40 598.74
  A 1.47 1.43 -47.4 0 0 988.35 598.69
  L 1046.13 574.08"
/>
<path stroke="#f1d08e" vector-effect="non-scaling-stroke" d="
  M 985.76 641.99
  A 0.62 0.62 0.0 0 0 986.36 642.75
  L 1038.93 642.75
  A 0.62 0.62 0.0 0 0 1039.53 642.27
  L 1053.98 579.83
  A 0.62 0.62 0.0 0 0 1053.13 579.12
  L 994.81 603.95
  A 0.62 0.62 0.0 0 0 994.45 604.38
  L 985.76 641.99"
/>
<path stroke="#8b929a" vector-effect="non-scaling-stroke" d="
  M 634.03 628.16
  A 0.25 0.25 0.0 0 0 633.71 628.07
  Q 560.42 662.91 513.87 685.30
  C 506.52 688.83 501.22 691.73 494.72 694.62
  C 483.40 699.67 472.09 705.66 459.35 711.83
  Q 459.16 711.92 458.89 712.37
  A 0.36 0.36 0.0 0 0 459.20 712.92
  L 523.97 712.92
  A 2.97 2.96 -64.1 0 0 525.81 712.28
  Q 553.75 689.99 577.59 671.55
  Q 610.87 645.80 613.26 644.01
  C 621.88 637.57 626.39 633.83 633.95 628.56
  A 0.30 0.29 58.7 0 0 634.04 628.17
  L 634.03 628.16"
/>
<path stroke="#8b929a" vector-effect="non-scaling-stroke" d="
  M 663.60 628.56
  A 0.20 0.19 58.3 0 0 663.53 628.88
  C 670.80 636.42 678.08 643.15 685.52 650.66
  Q 706.68 672.04 727.94 694.06
  Q 730.64 696.85 745.50 712.28
  A 1.89 1.86 -21.7 0 0 746.85 712.85
  L 812.99 712.85
  A 0.27 0.26 -16.3 0 0 813.22 712.44
  Q 813.07 712.22 812.89 712.12
  C 779.07 692.95 751.58 677.09 720.67 660.11
  Q 684.15 640.06 663.82 628.50
  A 0.16 0.10 -44.8 0 0 663.68 628.53
  Q 663.65 628.54 663.60 628.56"
/>
<path stroke="#8b929a" vector-effect="non-scaling-stroke" d="
  M 647.54 645.66
  L 644.10 645.66
  A 0.81 0.81 0.0 0 0 643.32 646.24
  L 640.32 656.52
  A 0.33 0.33 0.0 0 0 640.64 656.95
  L 647.71 656.95
  A 0.45 0.44 0.0 0 0 648.16 656.51
  L 648.16 646.27
  A 0.62 0.61 -0.0 0 0 647.54 645.66"
/>
<path stroke="#8b929a" vector-effect="non-scaling-stroke" d="
  M 638.17 664.29
  A 0.43 0.43 0.0 0 0 637.76 664.60
  L 633.24 680.09
  A 0.43 0.43 0.0 0 0 633.65 680.64
  L 647.22 680.64
  A 0.43 0.43 0.0 0 0 647.65 680.21
  L 647.65 664.72
  A 0.43 0.43 0.0 0 0 647.22 664.29
  L 638.17 664.29"
/>
<path stroke="#8b929a" vector-effect="non-scaling-stroke" d="
  M 630.44 689.69
  A 0.54 0.54 0.0 0 0 629.93 690.08
  L 623.46 712.21
  A 0.54 0.54 0.0 0 0 623.98 712.90
  L 646.92 712.90
  A 0.54 0.54 0.0 0 0 647.46 712.36
  L 647.46 690.23
  A 0.54 0.54 0.0 0 0 646.92 689.69
  L 630.44 689.69"
/>
<path stroke="#8b929a" vector-effect="non-scaling-stroke" d="
  M 190.43 778.28
  A 0.63 0.63 0.0 0 0 191.05 777.78
  L 193.27 767.38
  A 0.63 0.63 0.0 0 0 192.65 766.62
  L 146.45 766.62
  A 0.63 0.63 0.0 0 0 145.83 767.12
  L 134.86 818.37
  A 0.63 0.63 0.0 0 0 135.48 819.13
  L 181.47 819.13
  A 0.63 0.63 0.0 0 0 182.09 818.63
  L 184.28 808.39
  A 0.63 0.63 0.0 0 0 183.66 807.63
  L 150.28 807.63
  A 0.63 0.63 0.0 0 1 149.66 806.87
  L 151.35 798.96
  A 0.63 0.63 0.0 0 1 151.97 798.46
  L 178.98 798.46
  A 0.63 0.63 0.0 0 0 179.60 797.96
  L 181.75 787.89
  A 0.63 0.63 0.0 0 0 181.13 787.13
  L 154.61 787.13
  A 0.63 0.63 0.0 0 1 153.99 786.37
  L 155.62 778.78
  A 0.63 0.63 0.0 0 1 156.24 778.28
  L 190.43 778.28"
/>
<path stroke="#8b929a" vector-effect="non-scaling-stroke" d="
  M 205.65 766.62
  A 0.45 0.45 0.0 0 0 205.21 766.98
  L 194.18 818.56
  A 0.45 0.45 0.0 0 0 194.62 819.10
  L 206.12 819.10
  A 0.45 0.45 0.0 0 0 206.56 818.74
  L 210.81 798.83
  A 0.45 0.45 0.0 0 1 211.25 798.47
  L 216.92 798.47
  A 0.45 0.45 0.0 0 1 217.28 798.66
  L 231.54 819.00
  A 0.45 0.45 0.0 0 0 231.90 819.19
  L 246.69 819.19
  A 0.45 0.45 0.0 0 0 247.05 818.48
  L 228.98 792.68
  A 0.45 0.45 0.0 0 1 229.05 792.08
  L 256.72 767.39
  A 0.45 0.45 0.0 0 0 256.42 766.60
  L 241.87 766.60
  A 0.45 0.45 0.0 0 0 241.57 766.71
  L 218.88 786.97
  A 0.45 0.45 0.0 0 1 218.58 787.08
  L 213.71 787.08
  A 0.45 0.45 0.0 0 1 213.27 786.54
  L 217.41 767.16
  A 0.45 0.45 0.0 0 0 216.97 766.62
  L 205.65 766.62"
/>
<path stroke="#8b929a" vector-effect="non-scaling-stroke" d="
  M 258.35 819.10
  Q 261.22 819.14 291.82 819.20
  Q 298.77 819.22 301.52 817.69
  C 308.45 813.83 308.92 807.49 310.50 799.29
  C 312.22 790.40 306.89 786.98 299.01 786.92
  Q 288.48 786.84 278.89 787.22
  A 2.47 2.47 0.0 0 1 276.37 784.23
  L 277.02 781.20
  A 3.71 3.71 0.0 0 1 280.65 778.27
  L 312.50 778.27
  A 0.80 0.80 0.0 0 0 313.28 777.63
  L 315.49 767.32
  A 0.56 0.55 -83.6 0 0 314.96 766.64
  Q 300.55 766.45 279.81 766.71
  Q 267.89 766.87 265.39 778.12
  Q 263.99 784.47 263.97 784.54
  C 261.48 793.92 265.81 798.75 275.29 798.65
  C 283.62 798.56 289.61 798.38 295.90 798.47
  A 2.04 2.03 6.4 0 1 297.87 800.93
  L 296.95 805.23
  A 2.99 2.98 -84.0 0 1 294.03 807.60
  L 260.68 807.60
  A 0.95 0.94 -83.9 0 0 259.76 808.35
  L 257.64 818.22
  A 0.73 0.73 0.0 0 0 258.35 819.10"
/>
<path stroke="#8b929a" vector-effect="non-scaling-stroke" d="
  M 318.72 819.18
  L 329.70 819.18
  A 0.72 0.71 -84.0 0 0 330.40 818.61
  L 333.55 803.90
  A 0.63 0.62 5.2 0 1 334.15 803.41
  Q 347.72 803.27 359.50 803.38
  Q 369.17 803.47 373.11 795.65
  C 375.10 791.68 374.98 786.69 376.03 782.68
  Q 377.82 775.80 376.98 772.85
  C 375.38 767.20 370.46 766.53 364.76 766.58
  Q 357.07 766.66 329.60 766.60
  A 0.69 0.66 5.7 0 0 328.93 767.13
  L 317.98 818.26
  A 0.77 0.76 -84.1 0 0 318.72 819.18"
/>
<path stroke="#8b929a" vector-effect="non-scaling-stroke" d="
  M 437.79 766.58
  L 391.51 766.59
  A 0.44 0.44 0.0 0 0 391.08 766.93
  L 380.10 818.70
  A 0.41 0.41 0.0 0 0 380.50 819.20
  L 426.89 819.19
  A 0.63 0.63 0.0 0 0 427.51 818.68
  L 429.55 808.28
  A 0.49 0.49 0.0 0 0 429.07 807.69
  L 395.54 807.64
  A 0.65 0.65 0.0 0 1 394.91 806.85
  L 396.58 799.33
  A 1.03 1.02 6.3 0 1 397.58 798.53
  L 424.21 798.43
  A 0.89 0.88 5.1 0 0 425.07 797.72
  L 426.96 787.96
  A 0.76 0.75 -85.0 0 0 426.22 787.06
  L 400.15 787.19
  A 0.80 0.80 0.0 0 1 399.36 786.24
  L 400.71 779.07
  A 1.03 1.03 0.0 0 1 401.72 778.23
  L 435.78 778.27
  A 0.79 0.79 0.0 0 0 436.56 777.61
  L 438.38 767.29
  A 0.60 0.60 0.0 0 0 437.79 766.58"
/>
<path stroke="#8b929a" vector-effect="non-scaling-stroke" d="
  M 440.19 819.08
  Q 452.24 819.24 476.59 819.15
  C 483.14 819.13 486.02 818.51 490.17 814.13
  Q 492.40 811.76 493.94 803.69
  Q 495.48 795.55 498.74 780.72
  C 499.90 775.47 500.02 771.28 495.81 768.07
  Q 493.60 766.39 485.92 766.60
  Q 482.69 766.70 451.57 766.55
  A 0.85 0.85 0.0 0 0 450.73 767.22
  L 439.75 818.53
  A 0.46 0.45 6.7 0 0 440.19 819.08"
/>
<path stroke="#8b929a" vector-effect="non-scaling-stroke" d="
  M 514.80 819.19
  A 0.70 0.70 0.0 0 0 515.49 818.64
  L 526.45 767.46
  A 0.70 0.70 0.0 0 0 525.76 766.61
  L 514.80 766.61
  A 0.70 0.70 0.0 0 0 514.11 767.16
  L 503.16 818.34
  A 0.70 0.70 0.0 0 0 503.85 819.19
  L 514.80 819.19"
/>
<path stroke="#8b929a" vector-effect="non-scaling-stroke" d="
  M 528.87 819.11
  Q 531.74 819.15 562.37 819.25
  Q 569.33 819.28 572.08 817.75
  C 579.03 813.89 579.50 807.54 581.10 799.34
  C 582.83 790.44 577.50 787.01 569.61 786.94
  Q 559.07 786.85 549.46 787.22
  A 2.48 2.48 0.0 0 1 546.94 784.22
  L 547.60 781.19
  A 3.72 3.71 6.1 0 1 551.24 778.26
  L 583.12 778.29
  A 0.80 0.80 0.0 0 0 583.90 777.66
  L 586.13 767.34
  A 0.57 0.55 -83.5 0 0 585.60 766.65
  Q 571.17 766.45 550.41 766.68
  Q 538.48 766.83 535.96 778.09
  Q 534.55 784.45 534.53 784.52
  C 532.03 793.90 536.36 798.74 545.85 798.66
  C 554.19 798.57 560.18 798.40 566.48 798.50
  A 2.04 2.04 0.0 0 1 568.45 800.96
  L 567.52 805.27
  A 2.99 2.99 0.0 0 1 564.60 807.64
  L 531.21 807.60
  A 0.95 0.94 -83.9 0 0 530.29 808.35
  L 528.16 818.23
  A 0.73 0.73 0.0 0 0 528.87 819.11"
/>
<path stroke="#8b929a" vector-effect="non-scaling-stroke" d="
  M 600.59 819.17
  A 0.60 0.60 0.0 0 0 601.18 818.70
  L 612.18 767.34
  A 0.60 0.60 0.0 0 0 611.60 766.61
  L 600.33 766.61
  A 0.60 0.60 0.0 0 0 599.74 767.08
  L 588.75 818.44
  A 0.60 0.60 0.0 0 0 589.33 819.17
  L 600.59 819.17"
/>
<path stroke="#f1d08e" vector-effect="non-scaling-stroke" d="
  M 660.30 788.86
  A 0.08 0.08 0.0 0 1 660.45 788.85
  L 670.50 813.31
  A 0.79 0.79 0.0 0 0 671.23 813.80
  L 676.91 813.80
  A 2.53 2.52 -70.5 0 0 678.88 812.85
  L 698.18 788.72
  A 0.23 0.23 0.0 0 1 698.45 788.66
  Q 698.93 788.91 698.71 789.74
  Q 694.92 803.73 692.36 818.42
  A 0.61 0.61 0.0 0 0 692.96 819.14
  L 703.61 819.14
  A 1.07 1.07 0.0 0 0 704.66 818.29
  L 715.56 767.39
  A 0.65 0.64 6.1 0 0 714.92 766.61
  L 703.12 766.61
  A 2.27 2.26 -70.5 0 0 701.36 767.45
  L 678.32 796.26
  A 0.39 0.38 -36.6 0 1 677.67 796.17
  L 665.75 767.15
  A 0.81 0.79 -10.7 0 0 665.00 766.65
  L 653.38 766.65
  A 1.00 1.00 0.0 0 0 652.40 767.44
  L 641.49 818.40
  A 0.61 0.60 -84.2 0 0 642.08 819.13
  L 653.40 819.13
  A 0.51 0.51 0.0 0 0 653.90 818.72
  L 660.30 788.86"
/>
<path stroke="#f1d08e" vector-effect="non-scaling-stroke" d="
  M 762.22 818.74
  A 0.59 0.59 0.0 0 0 762.79 819.19
  L 774.95 819.19
  A 0.59 0.59 0.0 0 0 775.52 818.46
  L 762.85 766.95
  A 0.59 0.59 0.0 0 0 762.28 766.50
  L 748.40 766.50
  A 0.59 0.59 0.0 0 0 747.91 766.77
  L 714.02 818.37
  A 0.59 0.59 0.0 0 0 714.51 819.28
  L 726.77 819.28
  A 0.59 0.59 0.0 0 0 727.26 819.01
  L 733.27 809.89
  A 0.59 0.59 0.0 0 1 733.76 809.62
  L 759.51 809.62
  A 0.59 0.59 0.0 0 1 760.08 810.07
  L 762.22 818.74"
/>
<path stroke="#f1d08e" vector-effect="non-scaling-stroke" d="
  M 784.72 819.13
  Q 787.59 819.17 818.26 819.27
  Q 825.23 819.30 827.98 817.77
  C 834.93 813.91 835.41 807.55 837.01 799.34
  C 838.74 790.43 833.40 786.99 825.50 786.93
  Q 814.95 786.83 805.34 787.20
  A 2.48 2.48 0.0 0 1 802.82 784.20
  L 803.47 781.17
  A 3.72 3.72 0.0 0 1 807.11 778.23
  L 839.03 778.27
  A 0.80 0.80 0.0 0 0 839.82 777.63
  L 842.04 767.30
  A 0.57 0.55 -83.5 0 0 841.51 766.62
  Q 827.07 766.41 806.29 766.65
  Q 794.34 766.79 791.82 778.07
  Q 790.41 784.43 790.39 784.50
  C 787.88 793.90 792.22 798.74 801.72 798.65
  C 810.07 798.57 816.07 798.40 822.37 798.50
  A 2.04 2.04 0.0 0 1 824.35 800.96
  L 823.42 805.27
  A 2.99 2.99 0.0 0 1 820.49 807.65
  L 787.07 807.61
  A 0.95 0.94 -83.9 0 0 786.14 808.36
  L 784.01 818.25
  A 0.73 0.73 0.0 0 0 784.72 819.13"
/>
<path stroke="#8b929a" vector-effect="non-scaling-stroke" d="
  M 900.79 798.71
  L 913.46 798.71
  A 1.08 1.08 0.0 0 1 914.52 800.02
  L 913.30 805.71
  A 2.49 2.48 6.0 0 1 910.87 807.67
  L 888.56 807.67
  A 2.12 2.11 6.8 0 1 886.50 805.06
  Q 888.29 797.60 891.30 782.22
  C 891.83 779.48 892.63 778.25 895.49 778.24
  Q 913.57 778.20 917.57 778.32
  A 1.12 1.07 -80.4 0 1 918.55 779.76
  Q 918.46 780.06 918.44 781.04
  A 0.54 0.54 0.0 0 0 918.98 781.60
  L 929.92 781.60
  A 0.68 0.67 -81.1 0 0 930.56 781.13
  C 931.97 776.78 932.57 770.56 928.06 767.76
  Q 926.03 766.49 920.20 766.52
  Q 897.83 766.63 894.74 766.57
  Q 887.13 766.43 882.76 771.90
  Q 880.34 774.92 878.67 784.69
  Q 878.31 786.80 874.01 807.19
  Q 872.44 814.62 877.61 817.81
  Q 879.93 819.25 886.40 819.21
  Q 907.67 819.10 909.91 819.16
  C 915.20 819.29 918.55 818.24 922.11 814.77
  Q 923.92 813.00 925.51 805.58
  Q 928.58 791.19 929.02 788.72
  A 0.65 0.65 0.0 0 0 928.38 787.95
  L 903.30 787.95
  A 1.20 1.20 0.0 0 0 902.13 788.90
  L 900.19 797.97
  A 0.61 0.61 0.0 0 0 900.79 798.71"
/>
<path stroke="#8b929a" vector-effect="non-scaling-stroke" d="
  M 946.76 766.55
  A 0.65 0.65 0.0 0 0 946.12 767.06
  L 935.13 818.41
  A 0.65 0.65 0.0 0 0 935.76 819.20
  L 946.85 819.20
  A 0.65 0.65 0.0 0 0 947.49 818.69
  L 958.48 767.34
  A 0.65 0.65 0.0 0 0 957.85 766.55
  L 946.76 766.55"
/>
<path stroke="#8b929a" vector-effect="non-scaling-stroke" d="
  M 1053.13 795.98
  Q 1058.62 805.67 1065.41 818.46
  A 1.22 1.22 0.0 0 0 1066.49 819.11
  L 1077.93 819.11
  A 0.57 0.57 0.0 0 0 1078.49 818.66
  L 1089.48 767.28
  A 0.59 0.59 0.0 0 0 1088.90 766.56
  L 1077.86 766.56
  A 0.40 0.39 5.2 0 0 1077.47 766.88
  L 1070.47 799.55
  A 0.33 0.32 23.1 0 1 1069.97 799.75
  Q 1069.73 799.58 1069.55 799.22
  Q 1066.99 794.13 1064.50 789.75
  Q 1059.02 780.06 1052.23 767.27
  A 1.22 1.22 0.0 0 0 1051.15 766.61
  L 1039.71 766.61
  A 0.57 0.57 0.0 0 0 1039.15 767.06
  L 1028.16 818.44
  A 0.59 0.59 0.0 0 0 1028.74 819.16
  L 1039.78 819.16
  A 0.40 0.39 5.2 0 0 1040.17 818.84
  L 1047.17 786.17
  A 0.33 0.32 23.1 0 1 1047.67 785.97
  Q 1047.91 786.14 1048.09 786.50
  Q 1050.65 791.59 1053.13 795.98"
/>
<path stroke="#8b929a" vector-effect="non-scaling-stroke" d="
  M 1113.61 778.26
  A 0.58 0.58 0.0 0 1 1114.18 778.96
  L 1105.73 818.45
  A 0.58 0.58 0.0 0 0 1106.30 819.15
  L 1117.49 819.15
  A 0.58 0.58 0.0 0 0 1118.06 818.69
  L 1126.62 778.71
  A 0.58 0.58 0.0 0 1 1127.19 778.25
  L 1143.78 778.25
  A 0.58 0.58 0.0 0 0 1144.35 777.79
  L 1146.60 767.27
  A 0.58 0.58 0.0 0 0 1146.03 766.57
  L 1099.76 766.57
  A 0.58 0.58 0.0 0 0 1099.19 767.03
  L 1096.94 777.56
  A 0.58 0.58 0.0 0 0 1097.51 778.26
  L 1113.61 778.26"
/>
<path stroke="#8b929a" vector-effect="non-scaling-stroke" d="
  M 1018.85 818.47
  L 1006.35 767.36
  A 0.83 0.82 82.8 0 0 1005.55 766.73
  L 992.22 766.61
  A 1.09 1.07 -72.5 0 0 991.31 767.09
  L 957.59 818.33
  A 0.56 0.56 0.0 0 0 958.07 819.20
  L 969.95 819.08
  A 1.55 1.54 15.9 0 0 971.23 818.38
  L 976.26 810.54
  A 2.34 2.32 16.4 0 1 978.22 809.48
  L 1002.96 809.62
  A 0.80 0.79 84.3 0 1 1003.73 810.26
  L 1005.38 818.48
  A 0.87 0.86 -5.9 0 0 1006.24 819.18
  L 1018.44 819.02
  A 0.45 0.44 82.3 0 0 1018.85 818.47"
/>
<path stroke="#8b929a" vector-effect="non-scaling-stroke" d="
  M 336.76 791.79
  Q 347.68 792.11 358.69 791.80
  Q 361.69 791.72 362.54 789.27
  Q 362.79 788.58 364.44 780.88
  A 1.69 1.62 -49.0 0 0 364.40 780.04
  Q 363.78 778.09 361.98 778.13
  Q 349.86 778.39 339.63 778.09
  A 0.82 0.82 0.0 0 0 338.80 778.74
  L 336.17 791.03
  A 0.63 0.62 -83.1 0 0 336.76 791.79"
/>
<path stroke="#8b929a" vector-effect="non-scaling-stroke" d="
  M 454.38 807.01
  A 0.63 0.63 0.0 0 0 455.01 807.77
  Q 465.98 807.54 476.88 807.60
  C 478.73 807.60 480.95 806.96 481.29 805.18
  Q 483.76 792.10 486.03 782.24
  C 486.63 779.66 486.13 778.14 483.25 778.16
  Q 477.64 778.20 461.24 778.20
  A 0.87 0.86 -83.7 0 0 460.40 778.88
  L 454.38 807.01"
/>
<path stroke="#f1d08e" vector-effect="non-scaling-stroke" d="
  M 752.92 780.65
  A 0.30 0.30 0.0 0 0 752.38 780.56
  L 740.89 798.07
  A 0.30 0.30 0.0 0 0 741.15 798.53
  L 756.95 798.53
  A 0.30 0.30 0.0 0 0 757.24 798.16
  L 752.92 780.65"
/>
<path stroke="#8b929a" vector-effect="non-scaling-stroke" d="
  M 1000.37 798.65
  A 0.42 0.42 0.0 0 0 1000.78 798.13
  L 996.46 780.59
  A 0.42 0.42 0.0 0 0 995.70 780.46
  L 984.19 798.00
  A 0.42 0.42 0.0 0 0 984.54 798.65
  L 1000.37 798.65"
/>
</g>
<path fill="#ffffff" d="
  M 1254.00 0.00
  L 1254.00 1254.00
  L 0.00 1254.00
  L 0.00 0.00
  L 1254.00 0.00
  Z
  M 474.90 685.22
  A 0.31 0.31 0.0 0 0 475.33 685.58
  L 551.83 648.79
  A 0.31 0.31 0.0 0 0 552.00 648.59
  L 578.88 544.33
  A 0.31 0.31 0.0 0 1 579.40 544.19
  L 650.32 617.53
  A 0.31 0.31 0.0 0 0 650.73 617.56
  L 750.32 544.86
  A 0.31 0.31 0.0 0 1 750.80 545.18
  L 727.36 646.56
  A 0.31 0.31 0.0 0 0 727.51 646.90
  L 784.83 678.77
  A 0.31 0.31 0.0 0 0 785.28 678.57
  L 841.48 435.56
  A 0.31 0.31 0.0 0 0 841.18 435.18
  L 780.70 435.18
  A 0.31 0.31 0.0 0 0 780.50 435.25
  L 667.78 527.42
  A 0.31 0.31 0.0 0 1 667.34 527.37
  L 600.15 435.33
  A 0.31 0.31 0.0 0 0 599.90 435.20
  L 539.61 435.20
  A 0.31 0.31 0.0 0 0 539.31 435.43
  L 474.90 685.22
  Z
  M 978.89 549.15
  L 1062.84 571.43
  A 0.99 0.99 0.0 0 1 1063.55 572.62
  L 1045.10 648.80
  A 0.43 0.43 0.0 0 1 1044.70 649.12
  Q 1007.39 649.32 943.75 649.15
  Q 930.69 649.11 918.05 643.90
  Q 896.51 635.01 888.96 612.99
  C 882.91 595.33 885.12 576.78 892.14 559.91
  C 906.71 524.92 939.44 501.55 977.75 501.47
  Q 1029.65 501.37 1138.39 501.40
  A 0.76 0.76 0.0 0 0 1139.13 500.82
  L 1154.97 435.44
  A 0.21 0.20 6.7 0 0 1154.77 435.19
  Q 1109.01 435.05 982.02 435.25
  C 931.85 435.33 886.35 459.52 856.86 499.63
  C 825.93 541.71 811.88 600.15 834.53 648.58
  C 849.14 679.81 876.45 701.14 909.88 708.86
  Q 926.42 712.69 939.51 712.77
  Q 963.38 712.92 1089.94 712.88
  A 0.85 0.85 0.0 0 0 1090.77 712.23
  L 1130.33 548.92
  A 0.49 0.49 0.0 0 0 1129.86 548.31
  L 979.00 548.31
  A 0.43 0.43 0.0 0 0 978.89 549.15
  Z
  M 124.68 623.80
  A 0.26 0.26 0.0 0 0 124.92 624.06
  L 232.87 632.08
  A 0.75 0.74 9.6 0 1 233.54 633.01
  L 213.16 712.06
  A 0.67 0.67 0.0 0 0 213.81 712.90
  L 448.54 712.90
  A 0.95 0.95 0.0 0 0 449.46 712.20
  L 465.97 650.00
  A 0.62 0.62 0.0 0 0 465.37 649.22
  L 298.29 649.22
  A 0.26 0.26 0.0 0 1 298.04 648.90
  L 308.96 606.54
  A 0.51 0.51 0.0 0 1 309.45 606.16
  L 450.69 606.16
  A 0.46 0.45 -82.5 0 0 451.13 605.82
  L 467.42 544.45
  A 0.52 0.51 7.7 0 0 466.92 543.80
  L 326.08 543.80
  A 0.59 0.59 0.0 0 1 325.51 543.07
  L 335.98 502.50
  A 1.48 1.47 7.0 0 1 337.41 501.39
  L 504.34 501.39
  A 0.79 0.78 -82.9 0 0 505.10 500.79
  L 521.74 436.27
  A 0.59 0.59 0.0 0 0 521.17 435.53
  L 293.86 436.12
  A 0.94 0.91 -72.2 0 0 293.10 436.53
  C 286.66 446.11 281.24 455.99 277.34 467.56
  Q 273.84 477.96 271.94 486.12
  A 0.84 0.84 0.0 0 0 272.68 487.15
  L 309.96 490.63
  A 0.59 0.59 0.0 0 1 310.49 491.27
  L 309.98 496.71
  A 0.85 0.84 -87.7 0 1 309.15 497.48
  Q 302.96 497.62 298.04 497.99
  C 290.44 498.56 283.65 498.36 275.97 499.03
  Q 271.49 499.43 265.01 499.70
  C 225.32 501.33 191.16 503.87 136.26 507.22
  A 0.34 0.34 0.0 0 0 135.94 507.56
  L 135.94 507.82
  A 0.12 0.12 0.0 0 0 136.05 507.94
  L 262.96 517.36
  A 0.56 0.56 0.0 0 1 263.46 518.06
  L 254.41 553.16
  A 1.30 1.29 6.0 0 1 253.21 554.13
  Q 184.37 557.04 119.00 560.63
  Q 103.48 561.49 99.34 561.95
  A 0.18 0.18 0.0 0 0 99.18 562.13
  L 99.18 562.14
  A 0.19 0.19 0.0 0 0 99.36 562.32
  L 248.83 572.33
  A 0.46 0.46 0.0 0 1 249.25 572.91
  L 241.83 601.70
  A 0.84 0.84 0.0 0 0 242.56 602.74
  L 290.06 607.17
  A 0.17 0.17 0.0 0 1 290.21 607.36
  L 289.67 613.20
  A 0.35 0.34 0.9 0 1 289.35 613.50
  L 124.80 623.36
  A 0.13 0.12 -2.6 0 0 124.68 623.48
  L 124.68 623.80
  Z
  M 1046.13 574.08
  A 0.61 0.61 0.0 0 0 1046.07 572.94
  Q 1036.59 570.01 1022.62 566.16
  Q 1017.11 564.64 1013.08 563.74
  C 1007.26 562.43 1002.28 560.36 996.44 559.07
  C 988.79 557.37 981.39 554.78 973.81 553.18
  A 5.13 5.10 39.7 0 0 970.80 553.45
  L 914.14 576.71
  A 0.36 0.35 41.9 0 0 914.18 577.38
  L 987.40 598.74
  A 1.47 1.43 -47.4 0 0 988.35 598.69
  L 1046.13 574.08
  Z
  M 985.76 641.99
  A 0.62 0.62 0.0 0 0 986.36 642.75
  L 1038.93 642.75
  A 0.62 0.62 0.0 0 0 1039.53 642.27
  L 1053.98 579.83
  A 0.62 0.62 0.0 0 0 1053.13 579.12
  L 994.81 603.95
  A 0.62 0.62 0.0 0 0 994.45 604.38
  L 985.76 641.99
  Z
  M 634.03 628.16
  A 0.25 0.25 0.0 0 0 633.71 628.07
  Q 560.42 662.91 513.87 685.30
  C 506.52 688.83 501.22 691.73 494.72 694.62
  C 483.40 699.67 472.09 705.66 459.35 711.83
  Q 459.16 711.92 458.89 712.37
  A 0.36 0.36 0.0 0 0 459.20 712.92
  L 523.97 712.92
  A 2.97 2.96 -64.1 0 0 525.81 712.28
  Q 553.75 689.99 577.59 671.55
  Q 610.87 645.80 613.26 644.01
  C 621.88 637.57 626.39 633.83 633.95 628.56
  A 0.30 0.29 58.7 0 0 634.04 628.17
  L 634.03 628.16
  Z
  M 663.60 628.56
  A 0.20 0.19 58.3 0 0 663.53 628.88
  C 670.80 636.42 678.08 643.15 685.52 650.66
  Q 706.68 672.04 727.94 694.06
  Q 730.64 696.85 745.50 712.28
  A 1.89 1.86 -21.7 0 0 746.85 712.85
  L 812.99 712.85
  A 0.27 0.26 -16.3 0 0 813.22 712.44
  Q 813.07 712.22 812.89 712.12
  C 779.07 692.95 751.58 677.09 720.67 660.11
  Q 684.15 640.06 663.82 628.50
  A 0.16 0.10 -44.8 0 0 663.68 628.53
  Q 663.65 628.54 663.60 628.56
  Z
  M 647.54 645.66
  L 644.10 645.66
  A 0.81 0.81 0.0 0 0 643.32 646.24
  L 640.32 656.52
  A 0.33 0.33 0.0 0 0 640.64 656.95
  L 647.71 656.95
  A 0.45 0.44 0.0 0 0 648.16 656.51
  L 648.16 646.27
  A 0.62 0.61 -0.0 0 0 647.54 645.66
  Z
  M 638.17 664.29
  A 0.43 0.43 0.0 0 0 637.76 664.60
  L 633.24 680.09
  A 0.43 0.43 0.0 0 0 633.65 680.64
  L 647.22 680.64
  A 0.43 0.43 0.0 0 0 647.65 680.21
  L 647.65 664.72
  A 0.43 0.43 0.0 0 0 647.22 664.29
  L 638.17 664.29
  Z
  M 630.44 689.69
  A 0.54 0.54 0.0 0 0 629.93 690.08
  L 623.46 712.21
  A 0.54 0.54 0.0 0 0 623.98 712.90
  L 646.92 712.90
  A 0.54 0.54 0.0 0 0 647.46 712.36
  L 647.46 690.23
  A 0.54 0.54 0.0 0 0 646.92 689.69
  L 630.44 689.69
  Z
  M 190.43 778.28
  A 0.63 0.63 0.0 0 0 191.05 777.78
  L 193.27 767.38
  A 0.63 0.63 0.0 0 0 192.65 766.62
  L 146.45 766.62
  A 0.63 0.63 0.0 0 0 145.83 767.12
  L 134.86 818.37
  A 0.63 0.63 0.0 0 0 135.48 819.13
  L 181.47 819.13
  A 0.63 0.63 0.0 0 0 182.09 818.63
  L 184.28 808.39
  A 0.63 0.63 0.0 0 0 183.66 807.63
  L 150.28 807.63
  A 0.63 0.63 0.0 0 1 149.66 806.87
  L 151.35 798.96
  A 0.63 0.63 0.0 0 1 151.97 798.46
  L 178.98 798.46
  A 0.63 0.63 0.0 0 0 179.60 797.96
  L 181.75 787.89
  A 0.63 0.63 0.0 0 0 181.13 787.13
  L 154.61 787.13
  A 0.63 0.63 0.0 0 1 153.99 786.37
  L 155.62 778.78
  A 0.63 0.63 0.0 0 1 156.24 778.28
  L 190.43 778.28
  Z
  M 205.65 766.62
  A 0.45 0.45 0.0 0 0 205.21 766.98
  L 194.18 818.56
  A 0.45 0.45 0.0 0 0 194.62 819.10
  L 206.12 819.10
  A 0.45 0.45 0.0 0 0 206.56 818.74
  L 210.81 798.83
  A 0.45 0.45 0.0 0 1 211.25 798.47
  L 216.92 798.47
  A 0.45 0.45 0.0 0 1 217.28 798.66
  L 231.54 819.00
  A 0.45 0.45 0.0 0 0 231.90 819.19
  L 246.69 819.19
  A 0.45 0.45 0.0 0 0 247.05 818.48
  L 228.98 792.68
  A 0.45 0.45 0.0 0 1 229.05 792.08
  L 256.72 767.39
  A 0.45 0.45 0.0 0 0 256.42 766.60
  L 241.87 766.60
  A 0.45 0.45 0.0 0 0 241.57 766.71
  L 218.88 786.97
  A 0.45 0.45 0.0 0 1 218.58 787.08
  L 213.71 787.08
  A 0.45 0.45 0.0 0 1 213.27 786.54
  L 217.41 767.16
  A 0.45 0.45 0.0 0 0 216.97 766.62
  L 205.65 766.62
  Z
  M 258.35 819.10
  Q 261.22 819.14 291.82 819.20
  Q 298.77 819.22 301.52 817.69
  C 308.45 813.83 308.92 807.49 310.50 799.29
  C 312.22 790.40 306.89 786.98 299.01 786.92
  Q 288.48 786.84 278.89 787.22
  A 2.47 2.47 0.0 0 1 276.37 784.23
  L 277.02 781.20
  A 3.71 3.71 0.0 0 1 280.65 778.27
  L 312.50 778.27
  A 0.80 0.80 0.0 0 0 313.28 777.63
  L 315.49 767.32
  A 0.56 0.55 -83.6 0 0 314.96 766.64
  Q 300.55 766.45 279.81 766.71
  Q 267.89 766.87 265.39 778.12
  Q 263.99 784.47 263.97 784.54
  C 261.48 793.92 265.81 798.75 275.29 798.65
  C 283.62 798.56 289.61 798.38 295.90 798.47
  A 2.04 2.03 6.4 0 1 297.87 800.93
  L 296.95 805.23
  A 2.99 2.98 -84.0 0 1 294.03 807.60
  L 260.68 807.60
  A 0.95 0.94 -83.9 0 0 259.76 808.35
  L 257.64 818.22
  A 0.73 0.73 0.0 0 0 258.35 819.10
  Z
  M 318.72 819.18
  L 329.70 819.18
  A 0.72 0.71 -84.0 0 0 330.40 818.61
  L 333.55 803.90
  A 0.63 0.62 5.2 0 1 334.15 803.41
  Q 347.72 803.27 359.50 803.38
  Q 369.17 803.47 373.11 795.65
  C 375.10 791.68 374.98 786.69 376.03 782.68
  Q 377.82 775.80 376.98 772.85
  C 375.38 767.20 370.46 766.53 364.76 766.58
  Q 357.07 766.66 329.60 766.60
  A 0.69 0.66 5.7 0 0 328.93 767.13
  L 317.98 818.26
  A 0.77 0.76 -84.1 0 0 318.72 819.18
  Z
  M 437.79 766.58
  L 391.51 766.59
  A 0.44 0.44 0.0 0 0 391.08 766.93
  L 380.10 818.70
  A 0.41 0.41 0.0 0 0 380.50 819.20
  L 426.89 819.19
  A 0.63 0.63 0.0 0 0 427.51 818.68
  L 429.55 808.28
  A 0.49 0.49 0.0 0 0 429.07 807.69
  L 395.54 807.64
  A 0.65 0.65 0.0 0 1 394.91 806.85
  L 396.58 799.33
  A 1.03 1.02 6.3 0 1 397.58 798.53
  L 424.21 798.43
  A 0.89 0.88 5.1 0 0 425.07 797.72
  L 426.96 787.96
  A 0.76 0.75 -85.0 0 0 426.22 787.06
  L 400.15 787.19
  A 0.80 0.80 0.0 0 1 399.36 786.24
  L 400.71 779.07
  A 1.03 1.03 0.0 0 1 401.72 778.23
  L 435.78 778.27
  A 0.79 0.79 0.0 0 0 436.56 777.61
  L 438.38 767.29
  A 0.60 0.60 0.0 0 0 437.79 766.58
  Z
  M 440.19 819.08
  Q 452.24 819.24 476.59 819.15
  C 483.14 819.13 486.02 818.51 490.17 814.13
  Q 492.40 811.76 493.94 803.69
  Q 495.48 795.55 498.74 780.72
  C 499.90 775.47 500.02 771.28 495.81 768.07
  Q 493.60 766.39 485.92 766.60
  Q 482.69 766.70 451.57 766.55
  A 0.85 0.85 0.0 0 0 450.73 767.22
  L 439.75 818.53
  A 0.46 0.45 6.7 0 0 440.19 819.08
  Z
  M 514.80 819.19
  A 0.70 0.70 0.0 0 0 515.49 818.64
  L 526.45 767.46
  A 0.70 0.70 0.0 0 0 525.76 766.61
  L 514.80 766.61
  A 0.70 0.70 0.0 0 0 514.11 767.16
  L 503.16 818.34
  A 0.70 0.70 0.0 0 0 503.85 819.19
  L 514.80 819.19
  Z
  M 528.87 819.11
  Q 531.74 819.15 562.37 819.25
  Q 569.33 819.28 572.08 817.75
  C 579.03 813.89 579.50 807.54 581.10 799.34
  C 582.83 790.44 577.50 787.01 569.61 786.94
  Q 559.07 786.85 549.46 787.22
  A 2.48 2.48 0.0 0 1 546.94 784.22
  L 547.60 781.19
  A 3.72 3.71 6.1 0 1 551.24 778.26
  L 583.12 778.29
  A 0.80 0.80 0.0 0 0 583.90 777.66
  L 586.13 767.34
  A 0.57 0.55 -83.5 0 0 585.60 766.65
  Q 571.17 766.45 550.41 766.68
  Q 538.48 766.83 535.96 778.09
  Q 534.55 784.45 534.53 784.52
  C 532.03 793.90 536.36 798.74 545.85 798.66
  C 554.19 798.57 560.18 798.40 566.48 798.50
  A 2.04 2.04 0.0 0 1 568.45 800.96
  L 567.52 805.27
  A 2.99 2.99 0.0 0 1 564.60 807.64
  L 531.21 807.60
  A 0.95 0.94 -83.9 0 0 530.29 808.35
  L 528.16 818.23
  A 0.73 0.73 0.0 0 0 528.87 819.11
  Z
  M 600.59 819.17
  A 0.60 0.60 0.0 0 0 601.18 818.70
  L 612.18 767.34
  A 0.60 0.60 0.0 0 0 611.60 766.61
  L 600.33 766.61
  A 0.60 0.60 0.0 0 0 599.74 767.08
  L 588.75 818.44
  A 0.60 0.60 0.0 0 0 589.33 819.17
  L 600.59 819.17
  Z
  M 660.30 788.86
  A 0.08 0.08 0.0 0 1 660.45 788.85
  L 670.50 813.31
  A 0.79 0.79 0.0 0 0 671.23 813.80
  L 676.91 813.80
  A 2.53 2.52 -70.5 0 0 678.88 812.85
  L 698.18 788.72
  A 0.23 0.23 0.0 0 1 698.45 788.66
  Q 698.93 788.91 698.71 789.74
  Q 694.92 803.73 692.36 818.42
  A 0.61 0.61 0.0 0 0 692.96 819.14
  L 703.61 819.14
  A 1.07 1.07 0.0 0 0 704.66 818.29
  L 715.56 767.39
  A 0.65 0.64 6.1 0 0 714.92 766.61
  L 703.12 766.61
  A 2.27 2.26 -70.5 0 0 701.36 767.45
  L 678.32 796.26
  A 0.39 0.38 -36.6 0 1 677.67 796.17
  L 665.75 767.15
  A 0.81 0.79 -10.7 0 0 665.00 766.65
  L 653.38 766.65
  A 1.00 1.00 0.0 0 0 652.40 767.44
  L 641.49 818.40
  A 0.61 0.60 -84.2 0 0 642.08 819.13
  L 653.40 819.13
  A 0.51 0.51 0.0 0 0 653.90 818.72
  L 660.30 788.86
  Z
  M 762.22 818.74
  A 0.59 0.59 0.0 0 0 762.79 819.19
  L 774.95 819.19
  A 0.59 0.59 0.0 0 0 775.52 818.46
  L 762.85 766.95
  A 0.59 0.59 0.0 0 0 762.28 766.50
  L 748.40 766.50
  A 0.59 0.59 0.0 0 0 747.91 766.77
  L 714.02 818.37
  A 0.59 0.59 0.0 0 0 714.51 819.28
  L 726.77 819.28
  A 0.59 0.59 0.0 0 0 727.26 819.01
  L 733.27 809.89
  A 0.59 0.59 0.0 0 1 733.76 809.62
  L 759.51 809.62
  A 0.59 0.59 0.0 0 1 760.08 810.07
  L 762.22 818.74
  Z
  M 784.72 819.13
  Q 787.59 819.17 818.26 819.27
  Q 825.23 819.30 827.98 817.77
  C 834.93 813.91 835.41 807.55 837.01 799.34
  C 838.74 790.43 833.40 786.99 825.50 786.93
  Q 814.95 786.83 805.34 787.20
  A 2.48 2.48 0.0 0 1 802.82 784.20
  L 803.47 781.17
  A 3.72 3.72 0.0 0 1 807.11 778.23
  L 839.03 778.27
  A 0.80 0.80 0.0 0 0 839.82 777.63
  L 842.04 767.30
  A 0.57 0.55 -83.5 0 0 841.51 766.62
  Q 827.07 766.41 806.29 766.65
  Q 794.34 766.79 791.82 778.07
  Q 790.41 784.43 790.39 784.50
  C 787.88 793.90 792.22 798.74 801.72 798.65
  C 810.07 798.57 816.07 798.40 822.37 798.50
  A 2.04 2.04 0.0 0 1 824.35 800.96
  L 823.42 805.27
  A 2.99 2.99 0.0 0 1 820.49 807.65
  L 787.07 807.61
  A 0.95 0.94 -83.9 0 0 786.14 808.36
  L 784.01 818.25
  A 0.73 0.73 0.0 0 0 784.72 819.13
  Z
  M 900.79 798.71
  L 913.46 798.71
  A 1.08 1.08 0.0 0 1 914.52 800.02
  L 913.30 805.71
  A 2.49 2.48 6.0 0 1 910.87 807.67
  L 888.56 807.67
  A 2.12 2.11 6.8 0 1 886.50 805.06
  Q 888.29 797.60 891.30 782.22
  C 891.83 779.48 892.63 778.25 895.49 778.24
  Q 913.57 778.20 917.57 778.32
  A 1.12 1.07 -80.4 0 1 918.55 779.76
  Q 918.46 780.06 918.44 781.04
  A 0.54 0.54 0.0 0 0 918.98 781.60
  L 929.92 781.60
  A 0.68 0.67 -81.1 0 0 930.56 781.13
  C 931.97 776.78 932.57 770.56 928.06 767.76
  Q 926.03 766.49 920.20 766.52
  Q 897.83 766.63 894.74 766.57
  Q 887.13 766.43 882.76 771.90
  Q 880.34 774.92 878.67 784.69
  Q 878.31 786.80 874.01 807.19
  Q 872.44 814.62 877.61 817.81
  Q 879.93 819.25 886.40 819.21
  Q 907.67 819.10 909.91 819.16
  C 915.20 819.29 918.55 818.24 922.11 814.77
  Q 923.92 813.00 925.51 805.58
  Q 928.58 791.19 929.02 788.72
  A 0.65 0.65 0.0 0 0 928.38 787.95
  L 903.30 787.95
  A 1.20 1.20 0.0 0 0 902.13 788.90
  L 900.19 797.97
  A 0.61 0.61 0.0 0 0 900.79 798.71
  Z
  M 946.76 766.55
  A 0.65 0.65 0.0 0 0 946.12 767.06
  L 935.13 818.41
  A 0.65 0.65 0.0 0 0 935.76 819.20
  L 946.85 819.20
  A 0.65 0.65 0.0 0 0 947.49 818.69
  L 958.48 767.34
  A 0.65 0.65 0.0 0 0 957.85 766.55
  L 946.76 766.55
  Z
  M 1053.13 795.98
  Q 1058.62 805.67 1065.41 818.46
  A 1.22 1.22 0.0 0 0 1066.49 819.11
  L 1077.93 819.11
  A 0.57 0.57 0.0 0 0 1078.49 818.66
  L 1089.48 767.28
  A 0.59 0.59 0.0 0 0 1088.90 766.56
  L 1077.86 766.56
  A 0.40 0.39 5.2 0 0 1077.47 766.88
  L 1070.47 799.55
  A 0.33 0.32 23.1 0 1 1069.97 799.75
  Q 1069.73 799.58 1069.55 799.22
  Q 1066.99 794.13 1064.50 789.75
  Q 1059.02 780.06 1052.23 767.27
  A 1.22 1.22 0.0 0 0 1051.15 766.61
  L 1039.71 766.61
  A 0.57 0.57 0.0 0 0 1039.15 767.06
  L 1028.16 818.44
  A 0.59 0.59 0.0 0 0 1028.74 819.16
  L 1039.78 819.16
  A 0.40 0.39 5.2 0 0 1040.17 818.84
  L 1047.17 786.17
  A 0.33 0.32 23.1 0 1 1047.67 785.97
  Q 1047.91 786.14 1048.09 786.50
  Q 1050.65 791.59 1053.13 795.98
  Z
  M 1113.61 778.26
  A 0.58 0.58 0.0 0 1 1114.18 778.96
  L 1105.73 818.45
  A 0.58 0.58 0.0 0 0 1106.30 819.15
  L 1117.49 819.15
  A 0.58 0.58 0.0 0 0 1118.06 818.69
  L 1126.62 778.71
  A 0.58 0.58 0.0 0 1 1127.19 778.25
  L 1143.78 778.25
  A 0.58 0.58 0.0 0 0 1144.35 777.79
  L 1146.60 767.27
  A 0.58 0.58 0.0 0 0 1146.03 766.57
  L 1099.76 766.57
  A 0.58 0.58 0.0 0 0 1099.19 767.03
  L 1096.94 777.56
  A 0.58 0.58 0.0 0 0 1097.51 778.26
  L 1113.61 778.26
  Z
  M 1018.85 818.47
  L 1006.35 767.36
  A 0.83 0.82 82.8 0 0 1005.55 766.73
  L 992.22 766.61
  A 1.09 1.07 -72.5 0 0 991.31 767.09
  L 957.59 818.33
  A 0.56 0.56 0.0 0 0 958.07 819.20
  L 969.95 819.08
  A 1.55 1.54 15.9 0 0 971.23 818.38
  L 976.26 810.54
  A 2.34 2.32 16.4 0 1 978.22 809.48
  L 1002.96 809.62
  A 0.80 0.79 84.3 0 1 1003.73 810.26
  L 1005.38 818.48
  A 0.87 0.86 -5.9 0 0 1006.24 819.18
  L 1018.44 819.02
  A 0.45 0.44 82.3 0 0 1018.85 818.47
  Z"
/>
<path fill="#e3a11d" d="
  M 474.90 685.22
  L 539.31 435.43
  A 0.31 0.31 0.0 0 1 539.61 435.20
  L 599.90 435.20
  A 0.31 0.31 0.0 0 1 600.15 435.33
  L 667.34 527.37
  A 0.31 0.31 0.0 0 0 667.78 527.42
  L 780.50 435.25
  A 0.31 0.31 0.0 0 1 780.70 435.18
  L 841.18 435.18
  A 0.31 0.31 0.0 0 1 841.48 435.56
  L 785.28 678.57
  A 0.31 0.31 0.0 0 1 784.83 678.77
  L 727.51 646.90
  A 0.31 0.31 0.0 0 1 727.36 646.56
  L 750.80 545.18
  A 0.31 0.31 0.0 0 0 750.32 544.86
  L 650.73 617.56
  A 0.31 0.31 0.0 0 1 650.32 617.53
  L 579.40 544.19
  A 0.31 0.31 0.0 0 0 578.88 544.33
  L 552.00 648.59
  A 0.31 0.31 0.0 0 1 551.83 648.79
  L 475.33 685.58
  A 0.31 0.31 0.0 0 1 474.90 685.22
  Z"
/>
<path fill="#162535" d="
  M 978.89 549.15
  A 0.43 0.43 0.0 0 1 979.00 548.31
  L 1129.86 548.31
  A 0.49 0.49 0.0 0 1 1130.33 548.92
  L 1090.77 712.23
  A 0.85 0.85 0.0 0 1 1089.94 712.88
  Q 963.38 712.92 939.51 712.77
  Q 926.42 712.69 909.88 708.86
  C 876.45 701.14 849.14 679.81 834.53 648.58
  C 811.88 600.15 825.93 541.71 856.86 499.63
  C 886.35 459.52 931.85 435.33 982.02 435.25
  Q 1109.01 435.05 1154.77 435.19
  A 0.21 0.20 6.7 0 1 1154.97 435.44
  L 1139.13 500.82
  A 0.76 0.76 0.0 0 1 1138.39 501.40
  Q 1029.65 501.37 977.75 501.47
  C 939.44 501.55 906.71 524.92 892.14 559.91
  C 885.12 576.78 882.91 595.33 888.96 612.99
  Q 896.51 635.01 918.05 643.90
  Q 930.69 649.11 943.75 649.15
  Q 1007.39 649.32 1044.70 649.12
  A 0.43 0.43 0.0 0 0 1045.10 648.80
  L 1063.55 572.62
  A 0.99 0.99 0.0 0 0 1062.84 571.43
  L 978.89 549.15
  Z"
/>
<path fill="#162535" d="
  M 124.68 623.80
  L 124.68 623.48
  A 0.13 0.12 -2.6 0 1 124.80 623.36
  L 289.35 613.50
  A 0.35 0.34 0.9 0 0 289.67 613.20
  L 290.21 607.36
  A 0.17 0.17 0.0 0 0 290.06 607.17
  L 242.56 602.74
  A 0.84 0.84 0.0 0 1 241.83 601.70
  L 249.25 572.91
  A 0.46 0.46 0.0 0 0 248.83 572.33
  L 99.36 562.32
  A 0.19 0.19 0.0 0 1 99.18 562.14
  L 99.18 562.13
  A 0.18 0.18 0.0 0 1 99.34 561.95
  Q 103.48 561.49 119.00 560.63
  Q 184.37 557.04 253.21 554.13
  A 1.30 1.29 6.0 0 0 254.41 553.16
  L 263.46 518.06
  A 0.56 0.56 0.0 0 0 262.96 517.36
  L 136.05 507.94
  A 0.12 0.12 0.0 0 1 135.94 507.82
  L 135.94 507.56
  A 0.34 0.34 0.0 0 1 136.26 507.22
  C 191.16 503.87 225.32 501.33 265.01 499.70
  Q 271.49 499.43 275.97 499.03
  C 283.65 498.36 290.44 498.56 298.04 497.99
  Q 302.96 497.62 309.15 497.48
  A 0.85 0.84 -87.7 0 0 309.98 496.71
  L 310.49 491.27
  A 0.59 0.59 0.0 0 0 309.96 490.63
  L 272.68 487.15
  A 0.84 0.84 0.0 0 1 271.94 486.12
  Q 273.84 477.96 277.34 467.56
  C 281.24 455.99 286.66 446.11 293.10 436.53
  A 0.94 0.91 -72.2 0 1 293.86 436.12
  L 521.17 435.53
  A 0.59 0.59 0.0 0 1 521.74 436.27
  L 505.10 500.79
  A 0.79 0.78 -82.9 0 1 504.34 501.39
  L 337.41 501.39
  A 1.48 1.47 7.0 0 0 335.98 502.50
  L 325.51 543.07
  A 0.59 0.59 0.0 0 0 326.08 543.80
  L 466.92 543.80
  A 0.52 0.51 7.7 0 1 467.42 544.45
  L 451.13 605.82
  A 0.46 0.45 -82.5 0 1 450.69 606.16
  L 309.45 606.16
  A 0.51 0.51 0.0 0 0 308.96 606.54
  L 298.04 648.90
  A 0.26 0.26 0.0 0 0 298.29 649.22
  L 465.37 649.22
  A 0.62 0.62 0.0 0 1 465.97 650.00
  L 449.46 712.20
  A 0.95 0.95 0.0 0 1 448.54 712.90
  L 213.81 712.90
  A 0.67 0.67 0.0 0 1 213.16 712.06
  L 233.54 633.01
  A 0.75 0.74 9.6 0 0 232.87 632.08
  L 124.92 624.06
  A 0.26 0.26 0.0 0 1 124.68 623.80
  Z"
/>
<path fill="#e3a11d" d="
  M 1046.13 574.08
  L 988.35 598.69
  A 1.47 1.43 -47.4 0 1 987.40 598.74
  L 914.18 577.38
  A 0.36 0.35 41.9 0 1 914.14 576.71
  L 970.80 553.45
  A 5.13 5.10 39.7 0 1 973.81 553.18
  C 981.39 554.78 988.79 557.37 996.44 559.07
  C 1002.28 560.36 1007.26 562.43 1013.08 563.74
  Q 1017.11 564.64 1022.62 566.16
  Q 1036.59 570.01 1046.07 572.94
  A 0.61 0.61 0.0 0 1 1046.13 574.08
  Z"
/>
<path fill="#e3a11d" d="
  M 985.76 641.99
  L 994.45 604.38
  A 0.62 0.62 0.0 0 1 994.81 603.95
  L 1053.13 579.12
  A 0.62 0.62 0.0 0 1 1053.98 579.83
  L 1039.53 642.27
  A 0.62 0.62 0.0 0 1 1038.93 642.75
  L 986.36 642.75
  A 0.62 0.62 0.0 0 1 985.76 641.99
  Z"
/>
<path fill="#162535" d="
  M 634.03 628.16
  L 634.04 628.17
  A 0.30 0.29 58.7 0 1 633.95 628.56
  C 626.39 633.83 621.88 637.57 613.26 644.01
  Q 610.87 645.80 577.59 671.55
  Q 553.75 689.99 525.81 712.28
  A 2.97 2.96 -64.1 0 1 523.97 712.92
  L 459.20 712.92
  A 0.36 0.36 0.0 0 1 458.89 712.37
  Q 459.16 711.92 459.35 711.83
  C 472.09 705.66 483.40 699.67 494.72 694.62
  C 501.22 691.73 506.52 688.83 513.87 685.30
  Q 560.42 662.91 633.71 628.07
  A 0.25 0.25 0.0 0 1 634.03 628.16
  Z"
/>
<path fill="#162535" d="
  M 663.60 628.56
  Q 663.65 628.54 663.68 628.53
  A 0.16 0.10 -44.8 0 1 663.82 628.50
  Q 684.15 640.06 720.67 660.11
  C 751.58 677.09 779.07 692.95 812.89 712.12
  Q 813.07 712.22 813.22 712.44
  A 0.27 0.26 -16.3 0 1 812.99 712.85
  L 746.85 712.85
  A 1.89 1.86 -21.7 0 1 745.50 712.28
  Q 730.64 696.85 727.94 694.06
  Q 706.68 672.04 685.52 650.66
  C 678.08 643.15 670.80 636.42 663.53 628.88
  A 0.20 0.19 58.3 0 1 663.60 628.56
  Z"
/>
<path fill="#162535" d="
  M 648.16 646.27
  L 648.16 656.51
  A 0.45 0.44 0.0 0 1 647.71 656.95
  L 640.64 656.95
  A 0.33 0.33 0.0 0 1 640.32 656.52
  L 643.32 646.24
  A 0.81 0.81 0.0 0 1 644.10 645.66
  L 647.54 645.66
  A 0.62 0.61 0.0 0 1 648.16 646.27
  Z"
/>
<path fill="#162535" d="
  M 638.17 664.29
  L 647.22 664.29
  A 0.43 0.43 0.0 0 1 647.65 664.72
  L 647.65 680.21
  A 0.43 0.43 0.0 0 1 647.22 680.64
  L 633.65 680.64
  A 0.43 0.43 0.0 0 1 633.24 680.09
  L 637.76 664.60
  A 0.43 0.43 0.0 0 1 638.17 664.29
  Z"
/>
<path fill="#162535" d="
  M 630.44 689.69
  L 646.92 689.69
  A 0.54 0.54 0.0 0 1 647.46 690.23
  L 647.46 712.36
  A 0.54 0.54 0.0 0 1 646.92 712.90
  L 623.98 712.90
  A 0.54 0.54 0.0 0 1 623.46 712.21
  L 629.93 690.08
  A 0.54 0.54 0.0 0 1 630.44 689.69
  Z"
/>
<path fill="#162535" d="
  M 190.43 778.28
  L 156.24 778.28
  A 0.63 0.63 0.0 0 0 155.62 778.78
  L 153.99 786.37
  A 0.63 0.63 0.0 0 0 154.61 787.13
  L 181.13 787.13
  A 0.63 0.63 0.0 0 1 181.75 787.89
  L 179.60 797.96
  A 0.63 0.63 0.0 0 1 178.98 798.46
  L 151.97 798.46
  A 0.63 0.63 0.0 0 0 151.35 798.96
  L 149.66 806.87
  A 0.63 0.63 0.0 0 0 150.28 807.63
  L 183.66 807.63
  A 0.63 0.63 0.0 0 1 184.28 808.39
  L 182.09 818.63
  A 0.63 0.63 0.0 0 1 181.47 819.13
  L 135.48 819.13
  A 0.63 0.63 0.0 0 1 134.86 818.37
  L 145.83 767.12
  A 0.63 0.63 0.0 0 1 146.45 766.62
  L 192.65 766.62
  A 0.63 0.63 0.0 0 1 193.27 767.38
  L 191.05 777.78
  A 0.63 0.63 0.0 0 1 190.43 778.28
  Z"
/>
<path fill="#162535" d="
  M 205.65 766.62
  L 216.97 766.62
  A 0.45 0.45 0.0 0 1 217.41 767.16
  L 213.27 786.54
  A 0.45 0.45 0.0 0 0 213.71 787.08
  L 218.58 787.08
  A 0.45 0.45 0.0 0 0 218.88 786.97
  L 241.57 766.71
  A 0.45 0.45 0.0 0 1 241.87 766.60
  L 256.42 766.60
  A 0.45 0.45 0.0 0 1 256.72 767.39
  L 229.05 792.08
  A 0.45 0.45 0.0 0 0 228.98 792.68
  L 247.05 818.48
  A 0.45 0.45 0.0 0 1 246.69 819.19
  L 231.90 819.19
  A 0.45 0.45 0.0 0 1 231.54 819.00
  L 217.28 798.66
  A 0.45 0.45 0.0 0 0 216.92 798.47
  L 211.25 798.47
  A 0.45 0.45 0.0 0 0 210.81 798.83
  L 206.56 818.74
  A 0.45 0.45 0.0 0 1 206.12 819.10
  L 194.62 819.10
  A 0.45 0.45 0.0 0 1 194.18 818.56
  L 205.21 766.98
  A 0.45 0.45 0.0 0 1 205.65 766.62
  Z"
/>
<path fill="#162535" d="
  M 257.64 818.22
  L 259.76 808.35
  A 0.95 0.94 -83.9 0 1 260.68 807.60
  L 294.03 807.60
  A 2.99 2.98 -84.0 0 0 296.95 805.23
  L 297.87 800.93
  A 2.04 2.03 6.4 0 0 295.90 798.47
  C 289.61 798.38 283.62 798.56 275.29 798.65
  C 265.81 798.75 261.48 793.92 263.97 784.54
  Q 263.99 784.47 265.39 778.12
  Q 267.89 766.87 279.81 766.71
  Q 300.55 766.45 314.96 766.64
  A 0.56 0.55 -83.6 0 1 315.49 767.32
  L 313.28 777.63
  A 0.80 0.80 0.0 0 1 312.50 778.27
  L 280.65 778.27
  A 3.71 3.71 0.0 0 0 277.02 781.20
  L 276.37 784.23
  A 2.47 2.47 0.0 0 0 278.89 787.22
  Q 288.48 786.84 299.01 786.92
  C 306.89 786.98 312.22 790.40 310.50 799.29
  C 308.92 807.49 308.45 813.83 301.52 817.69
  Q 298.77 819.22 291.82 819.20
  Q 261.22 819.14 258.35 819.10
  A 0.73 0.73 0.0 0 1 257.64 818.22
  Z"
/>
<path fill="#162535" d="
  M 318.72 819.18
  A 0.77 0.76 -84.1 0 1 317.98 818.26
  L 328.93 767.13
  A 0.69 0.66 5.7 0 1 329.60 766.60
  Q 357.07 766.66 364.76 766.58
  C 370.46 766.53 375.38 767.20 376.98 772.85
  Q 377.82 775.80 376.03 782.68
  C 374.98 786.69 375.10 791.68 373.11 795.65
  Q 369.17 803.47 359.50 803.38
  Q 347.72 803.27 334.15 803.41
  A 0.63 0.62 5.2 0 0 333.55 803.90
  L 330.40 818.61
  A 0.72 0.71 -84.0 0 1 329.70 819.18
  L 318.72 819.18
  Z
  M 336.76 791.79
  Q 347.68 792.11 358.69 791.80
  Q 361.69 791.72 362.54 789.27
  Q 362.79 788.58 364.44 780.88
  A 1.69 1.62 -49.0 0 0 364.40 780.04
  Q 363.78 778.09 361.98 778.13
  Q 349.86 778.39 339.63 778.09
  A 0.82 0.82 0.0 0 0 338.80 778.74
  L 336.17 791.03
  A 0.63 0.62 -83.1 0 0 336.76 791.79
  Z"
/>
<path fill="#162535" d="
  M 437.79 766.58
  A 0.60 0.60 0.0 0 1 438.38 767.29
  L 436.56 777.61
  A 0.79 0.79 0.0 0 1 435.78 778.27
  L 401.72 778.23
  A 1.03 1.03 0.0 0 0 400.71 779.07
  L 399.36 786.24
  A 0.80 0.80 0.0 0 0 400.15 787.19
  L 426.22 787.06
  A 0.76 0.75 -85.0 0 1 426.96 787.96
  L 425.07 797.72
  A 0.89 0.88 5.1 0 1 424.21 798.43
  L 397.58 798.53
  A 1.03 1.02 6.3 0 0 396.58 799.33
  L 394.91 806.85
  A 0.65 0.65 0.0 0 0 395.54 807.64
  L 429.07 807.69
  A 0.49 0.49 0.0 0 1 429.55 808.28
  L 427.51 818.68
  A 0.63 0.63 0.0 0 1 426.89 819.19
  L 380.50 819.20
  A 0.41 0.41 0.0 0 1 380.10 818.70
  L 391.08 766.93
  A 0.44 0.44 0.0 0 1 391.51 766.59
  L 437.79 766.58
  Z"
/>
<path fill="#162535" d="
  M 440.19 819.08
  A 0.46 0.45 6.7 0 1 439.75 818.53
  L 450.73 767.22
  A 0.85 0.85 0.0 0 1 451.57 766.55
  Q 482.69 766.70 485.92 766.60
  Q 493.60 766.39 495.81 768.07
  C 500.02 771.28 499.90 775.47 498.74 780.72
  Q 495.48 795.55 493.94 803.69
  Q 492.40 811.76 490.17 814.13
  C 486.02 818.51 483.14 819.13 476.59 819.15
  Q 452.24 819.24 440.19 819.08
  Z
  M 454.38 807.01
  A 0.63 0.63 0.0 0 0 455.01 807.77
  Q 465.98 807.54 476.88 807.60
  C 478.73 807.60 480.95 806.96 481.29 805.18
  Q 483.76 792.10 486.03 782.24
  C 486.63 779.66 486.13 778.14 483.25 778.16
  Q 477.64 778.20 461.24 778.20
  A 0.87 0.86 -83.7 0 0 460.40 778.88
  L 454.38 807.01
  Z"
/>
<path fill="#162535" d="
  M 514.80 819.19
  L 503.85 819.19
  A 0.70 0.70 0.0 0 1 503.16 818.34
  L 514.11 767.16
  A 0.70 0.70 0.0 0 1 514.80 766.61
  L 525.76 766.61
  A 0.70 0.70 0.0 0 1 526.45 767.46
  L 515.49 818.64
  A 0.70 0.70 0.0 0 1 514.80 819.19
  Z"
/>
<path fill="#162535" d="
  M 528.87 819.11
  A 0.73 0.73 0.0 0 1 528.16 818.23
  L 530.29 808.35
  A 0.95 0.94 -83.9 0 1 531.21 807.60
  L 564.60 807.64
  A 2.99 2.99 0.0 0 0 567.52 805.27
  L 568.45 800.96
  A 2.04 2.04 0.0 0 0 566.48 798.50
  C 560.18 798.40 554.19 798.57 545.85 798.66
  C 536.36 798.74 532.03 793.90 534.53 784.52
  Q 534.55 784.45 535.96 778.09
  Q 538.48 766.83 550.41 766.68
  Q 571.17 766.45 585.60 766.65
  A 0.57 0.55 -83.5 0 1 586.13 767.34
  L 583.90 777.66
  A 0.80 0.80 0.0 0 1 583.12 778.29
  L 551.24 778.26
  A 3.72 3.71 6.1 0 0 547.60 781.19
  L 546.94 784.22
  A 2.48 2.48 0.0 0 0 549.46 787.22
  Q 559.07 786.85 569.61 786.94
  C 577.50 787.01 582.83 790.44 581.10 799.34
  C 579.50 807.54 579.03 813.89 572.08 817.75
  Q 569.33 819.28 562.37 819.25
  Q 531.74 819.15 528.87 819.11
  Z"
/>
<path fill="#162535" d="
  M 600.59 819.17
  L 589.33 819.17
  A 0.60 0.60 0.0 0 1 588.75 818.44
  L 599.74 767.08
  A 0.60 0.60 0.0 0 1 600.33 766.61
  L 611.60 766.61
  A 0.60 0.60 0.0 0 1 612.18 767.34
  L 601.18 818.70
  A 0.60 0.60 0.0 0 1 600.59 819.17
  Z"
/>
<path fill="#e3a11d" d="
  M 660.30 788.86
  L 653.90 818.72
  A 0.51 0.51 0.0 0 1 653.40 819.13
  L 642.08 819.13
  A 0.61 0.60 -84.2 0 1 641.49 818.40
  L 652.40 767.44
  A 1.00 1.00 0.0 0 1 653.38 766.65
  L 665.00 766.65
  A 0.81 0.79 -10.7 0 1 665.75 767.15
  L 677.67 796.17
  A 0.39 0.38 -36.6 0 0 678.32 796.26
  L 701.36 767.45
  A 2.27 2.26 -70.5 0 1 703.12 766.61
  L 714.92 766.61
  A 0.65 0.64 6.1 0 1 715.56 767.39
  L 704.66 818.29
  A 1.07 1.07 0.0 0 1 703.61 819.14
  L 692.96 819.14
  A 0.61 0.61 0.0 0 1 692.36 818.42
  Q 694.92 803.73 698.71 789.74
  Q 698.93 788.91 698.45 788.66
  A 0.23 0.23 0.0 0 0 698.18 788.72
  L 678.88 812.85
  A 2.53 2.52 -70.5 0 1 676.91 813.80
  L 671.23 813.80
  A 0.79 0.79 0.0 0 1 670.50 813.31
  L 660.45 788.85
  A 0.08 0.08 0.0 0 0 660.30 788.86
  Z"
/>
<path fill="#e3a11d" d="
  M 762.22 818.74
  L 760.08 810.07
  A 0.59 0.59 0.0 0 0 759.51 809.62
  L 733.76 809.62
  A 0.59 0.59 0.0 0 0 733.27 809.89
  L 727.26 819.01
  A 0.59 0.59 0.0 0 1 726.77 819.28
  L 714.51 819.28
  A 0.59 0.59 0.0 0 1 714.02 818.37
  L 747.91 766.77
  A 0.59 0.59 0.0 0 1 748.40 766.50
  L 762.28 766.50
  A 0.59 0.59 0.0 0 1 762.85 766.95
  L 775.52 818.46
  A 0.59 0.59 0.0 0 1 774.95 819.19
  L 762.79 819.19
  A 0.59 0.59 0.0 0 1 762.22 818.74
  Z
  M 752.92 780.65
  A 0.30 0.30 0.0 0 0 752.38 780.56
  L 740.89 798.07
  A 0.30 0.30 0.0 0 0 741.15 798.53
  L 756.95 798.53
  A 0.30 0.30 0.0 0 0 757.24 798.16
  L 752.92 780.65
  Z"
/>
<path fill="#e3a11d" d="
  M 784.72 819.13
  A 0.73 0.73 0.0 0 1 784.01 818.25
  L 786.14 808.36
  A 0.95 0.94 -83.9 0 1 787.07 807.61
  L 820.49 807.65
  A 2.99 2.99 0.0 0 0 823.42 805.27
  L 824.35 800.96
  A 2.04 2.04 0.0 0 0 822.37 798.50
  C 816.07 798.40 810.07 798.57 801.72 798.65
  C 792.22 798.74 787.88 793.90 790.39 784.50
  Q 790.41 784.43 791.82 778.07
  Q 794.34 766.79 806.29 766.65
  Q 827.07 766.41 841.51 766.62
  A 0.57 0.55 -83.5 0 1 842.04 767.30
  L 839.82 777.63
  A 0.80 0.80 0.0 0 1 839.03 778.27
  L 807.11 778.23
  A 3.72 3.72 0.0 0 0 803.47 781.17
  L 802.82 784.20
  A 2.48 2.48 0.0 0 0 805.34 787.20
  Q 814.95 786.83 825.50 786.93
  C 833.40 786.99 838.74 790.43 837.01 799.34
  C 835.41 807.55 834.93 813.91 827.98 817.77
  Q 825.23 819.30 818.26 819.27
  Q 787.59 819.17 784.72 819.13
  Z"
/>
<path fill="#162535" d="
  M 900.79 798.71
  A 0.61 0.61 0.0 0 1 900.19 797.97
  L 902.13 788.90
  A 1.20 1.20 0.0 0 1 903.30 787.95
  L 928.38 787.95
  A 0.65 0.65 0.0 0 1 929.02 788.72
  Q 928.58 791.19 925.51 805.58
  Q 923.92 813.00 922.11 814.77
  C 918.55 818.24 915.20 819.29 909.91 819.16
  Q 907.67 819.10 886.40 819.21
  Q 879.93 819.25 877.61 817.81
  Q 872.44 814.62 874.01 807.19
  Q 878.31 786.80 878.67 784.69
  Q 880.34 774.92 882.76 771.90
  Q 887.13 766.43 894.74 766.57
  Q 897.83 766.63 920.20 766.52
  Q 926.03 766.49 928.06 767.76
  C 932.57 770.56 931.97 776.78 930.56 781.13
  A 0.68 0.67 -81.1 0 1 929.92 781.60
  L 918.98 781.60
  A 0.54 0.54 0.0 0 1 918.44 781.04
  Q 918.46 780.06 918.55 779.76
  A 1.12 1.07 -80.4 0 0 917.57 778.32
  Q 913.57 778.20 895.49 778.24
  C 892.63 778.25 891.83 779.48 891.30 782.22
  Q 888.29 797.60 886.50 805.06
  A 2.12 2.11 6.8 0 0 888.56 807.67
  L 910.87 807.67
  A 2.49 2.48 6.0 0 0 913.30 805.71
  L 914.52 800.02
  A 1.08 1.08 0.0 0 0 913.46 798.71
  L 900.79 798.71
  Z"
/>
<path fill="#162535" d="
  M 946.76 766.55
  L 957.85 766.55
  A 0.65 0.65 0.0 0 1 958.48 767.34
  L 947.49 818.69
  A 0.65 0.65 0.0 0 1 946.85 819.20
  L 935.76 819.20
  A 0.65 0.65 0.0 0 1 935.13 818.41
  L 946.12 767.06
  A 0.65 0.65 0.0 0 1 946.76 766.55
  Z"
/>
<path fill="#162535" d="
  M 1064.50 789.75
  Q 1066.99 794.13 1069.55 799.22
  Q 1069.73 799.58 1069.97 799.75
  A 0.33 0.32 23.1 0 0 1070.47 799.55
  L 1077.47 766.88
  A 0.40 0.39 5.2 0 1 1077.86 766.56
  L 1088.90 766.56
  A 0.59 0.59 0.0 0 1 1089.48 767.28
  L 1078.49 818.66
  A 0.57 0.57 0.0 0 1 1077.93 819.11
  L 1066.49 819.11
  A 1.22 1.22 0.0 0 1 1065.41 818.46
  Q 1058.62 805.67 1053.13 795.98
  Q 1050.65 791.59 1048.09 786.50
  Q 1047.91 786.14 1047.67 785.97
  A 0.33 0.32 23.1 0 0 1047.17 786.17
  L 1040.17 818.84
  A 0.40 0.39 5.2 0 1 1039.78 819.16
  L 1028.74 819.16
  A 0.59 0.59 0.0 0 1 1028.16 818.44
  L 1039.15 767.06
  A 0.57 0.57 0.0 0 1 1039.71 766.61
  L 1051.15 766.61
  A 1.22 1.22 0.0 0 1 1052.23 767.27
  Q 1059.02 780.06 1064.50 789.75
  Z"
/>
<path fill="#162535" d="
  M 1113.61 778.26
  L 1097.51 778.26
  A 0.58 0.58 0.0 0 1 1096.94 777.56
  L 1099.19 767.03
  A 0.58 0.58 0.0 0 1 1099.76 766.57
  L 1146.03 766.57
  A 0.58 0.58 0.0 0 1 1146.60 767.27
  L 1144.35 777.79
  A 0.58 0.58 0.0 0 1 1143.78 778.25
  L 1127.19 778.25
  A 0.58 0.58 0.0 0 0 1126.62 778.71
  L 1118.06 818.69
  A 0.58 0.58 0.0 0 1 1117.49 819.15
  L 1106.30 819.15
  A 0.58 0.58 0.0 0 1 1105.73 818.45
  L 1114.18 778.96
  A 0.58 0.58 0.0 0 0 1113.61 778.26
  Z"
/>
<path fill="#162535" d="
  M 1018.85 818.47
  A 0.45 0.44 82.3 0 1 1018.44 819.02
  L 1006.24 819.18
  A 0.87 0.86 -5.9 0 1 1005.38 818.48
  L 1003.73 810.26
  A 0.80 0.79 84.3 0 0 1002.96 809.62
  L 978.22 809.48
  A 2.34 2.32 16.4 0 0 976.26 810.54
  L 971.23 818.38
  A 1.55 1.54 15.9 0 1 969.95 819.08
  L 958.07 819.20
  A 0.56 0.56 0.0 0 1 957.59 818.33
  L 991.31 767.09
  A 1.09 1.07 -72.5 0 1 992.22 766.61
  L 1005.55 766.73
  A 0.83 0.82 82.8 0 1 1006.35 767.36
  L 1018.85 818.47
  Z
  M 1000.37 798.65
  A 0.42 0.42 0.0 0 0 1000.78 798.13
  L 996.46 780.59
  A 0.42 0.42 0.0 0 0 995.70 780.46
  L 984.19 798.00
  A 0.42 0.42 0.0 0 0 984.54 798.65
  L 1000.37 798.65
  Z"
/>
<path fill="#ffffff" d="
  M 336.76 791.79
  A 0.63 0.62 -83.1 0 1 336.17 791.03
  L 338.80 778.74
  A 0.82 0.82 0.0 0 1 339.63 778.09
  Q 349.86 778.39 361.98 778.13
  Q 363.78 778.09 364.40 780.04
  A 1.69 1.62 -49.0 0 1 364.44 780.88
  Q 362.79 788.58 362.54 789.27
  Q 361.69 791.72 358.69 791.80
  Q 347.68 792.11 336.76 791.79
  Z"
/>
<path fill="#ffffff" d="
  M 454.38 807.01
  L 460.40 778.88
  A 0.87 0.86 -83.7 0 1 461.24 778.20
  Q 477.64 778.20 483.25 778.16
  C 486.13 778.14 486.63 779.66 486.03 782.24
  Q 483.76 792.10 481.29 805.18
  C 480.95 806.96 478.73 807.60 476.88 807.60
  Q 465.98 807.54 455.01 807.77
  A 0.63 0.63 0.0 0 1 454.38 807.01
  Z"
/>
<path fill="#ffffff" d="
  M 752.92 780.65
  L 757.24 798.16
  A 0.30 0.30 0.0 0 1 756.95 798.53
  L 741.15 798.53
  A 0.30 0.30 0.0 0 1 740.89 798.07
  L 752.38 780.56
  A 0.30 0.30 0.0 0 1 752.92 780.65
  Z"
/>
<path fill="#ffffff" d="
  M 1000.37 798.65
  L 984.54 798.65
  A 0.42 0.42 0.0 0 1 984.19 798.00
  L 995.70 780.46
  A 0.42 0.42 0.0 0 1 996.46 780.59
  L 1000.78 798.13
  A 0.42 0.42 0.0 0 1 1000.37 798.65
  Z"
/>
</svg>
